<?xml version="1.0" encoding="UTF-8" standalone="no"?>
<svg height="134.39081" viewBox="0 0 134.79859 134.3908" width="134.79858" xmlns="http://www.w3.org/2000/svg">
<defs>
<radialGradient cx="52.10308" cy="36.45315" gradientUnits="userSpaceOnUse" id="radialGradient3016" r="101.58216">
<stop offset="0" stop-color="#d1f593"/>
<stop offset="1" stop-color="#81ce09"/>
</radialGradient>
</defs>
<path d="m76.24923.01881c-3.79486-.11197-7.62435.3125-10.25.3125-3.22474,0-7.71617-.49257-11.8125.21875-2.04817.35566-4.03868,1.04557-5.6875,2.34375s-2.88421,3.21075-3.40625,5.75c-1.25735,6.11447-.21875,12.97289-.21875,18.59375v17.65625c-8.03315-.0057-16.06141-.00091-24.09375,0-3.75344,0-8.57902-.41787-12.75.71875-2.08549.56831-4.07541,1.58196-5.5,3.3125s-2.21875,4.12125-2.21875,7.15625c0,7.45889-.72179,15.46606.03125,23.1875h-.03125c0,.05868.03048.09804.03125.15625 .04129,3.12591 1.17076,5.60146 3,7.21875 1.86331,1.64741 4.27158,2.45497 6.8125,2.875 5.08184.84007 10.88238.15625 14.40625.15625 1.50487,0 6.79713-.27202 11.875-.28125 2.53893-.0046 5.01099.04385 6.75.21875 .77038.07748 1.30949.21382 1.6875.3125v27.28125c0,4.40607.26705,8.50631 2.15625,11.75s5.54011,5.28125 11.09375,5.28125h14.125c3.58987.002 8.7911.91748 12.78125-1.75 3.87353-2.59068 4.83697-7.51256 5.03125-12.3125s-.40625-9.77974-.40625-12.84375v-14.5625c0-1.58605-.17385-2.70633-.15625-3 .05547-.01555.23533-.09375.8125-.09375h28.87499c3.12297,0 7.0391.54753 10.4375-1.75 2.4825-1.6778 3.68801-4.0393 4.1875-6.40625s.40625-4.78432.40625-7c0-3.25483.70094-8.84678.5625-14.21875s-1.04906-10.84779-5.15625-13.625c-3.39322-2.29748-7.30987-1.78125-10.4375-1.78125h-15.875-13c-.5771,0-.75706-.0782-.8125-.09375-.01763-.29387.15625-1.41436.15625-3v-28.875c-.00099-3.19007-.23443-6.73556-3.03125-9.53125-2.64588-2.6453-6.57763-3.26295-10.375-3.375zm-19.09375,5.0625c1.69468-.00561 3.51297.15625 5.125.15625h14.9375c2.35649,0 3.85184.48968 4.875,1.21875s1.67083,1.73218 2.09375,3.09375c.84585,2.72315.59375,6.72947.59375,10.5625v27.25c0,.90426.7075,1.57277 1.21875,1.84375s1.00584.39377 1.59375.5c1.17582.21245 2.67177.28402 4.46875.3125 3.59396.05697 8.34567-.12461 13.25-.28125s9.96918-.296 14.0625-.125c2.04666.0855 3.85631.24788 5.25.5s2.35894.66146 2.625.875c2.00461,1.61002 2.84364,6.08795 2.8125,11.0625s-.75,10.18989-.75,13.46875c0,1.96136.0467,3.85837-.34375,5.34375s-1.051,2.53998-2.75,3.375c-1.93299.94928-5.54149.5625-8.53125.5625h-28.74999c-.85464,0-1.32853-.26318-2.4375,0-.55449.13159-1.23977.71288-1.46875,1.28125s-.25,1.03915-.25,1.625v12.8125c0,7.68521.94826,15.84253.03125,23.09375a1.49109,1.49109 0 0,0 -.03125.1875c0,2.12708-.78102,3.24862-2.3125,4.1875s-3.90321,1.49529-6.53125,1.71875c-5.25607.44692-11.39279-.375-14.8125-.375-2.20298-.001-4.4867.19924-6.375-.0937s-3.27389-.91337-4.28125-2.65625c-1.11408-1.92872-.6875-5.73873-.6875-8.875v-30c.00012-.83208-.43657-1.68981-1.03125-2.1875s-1.29073-.7557-2.03125-.93755c-1.48104-.36371-3.29223-.39455-5.4375-.34375-4.29054.10159-9.85207.70329-15.375,1.03125s-10.99972.35429-14.875-.5625c-1.93764-.45839-3.4628-1.16761-4.40625-2.03125s-1.40753-1.83594-1.40625-3.40625v-23.1875c0-2.20052.59392-3.46659 1.53125-4.375s2.33923-1.49604 4.09375-1.8125c3.50905-.63292 8.12324-.09375 11.625-.09375h25.5625c.60966,0 1.02385-.38905 1.1875-.59375s.21083-.33619.25-.4375c.07835-.20263.10355-.28725.125-.40625 .04291-.238.04029-.49322.0625-.78125 .04443-.57607.10141-1.32953.125-2.25 .04718-1.84095.06204-4.2868.0625-6.78125 .00092-4.98891-.0625-10.23062-.0625-10.96875 0-3.09593-.65759-7.95388-.5-12.4375 .07879-2.24181.3762-4.36193.96875-6s1.40654-2.74456 2.625-3.34375c1.06291-.52271 2.5877-.71315 4.28125-.71875z"/>
<path d="m51.72908,128.80744c0,2.51626 27.67986,1.33492 30.5255.78917 4.72149-.90315-8.7736-3.01566-9.92209-3.06782-1.84397-.0821-20.60631-.8732-20.60341,2.27865" fill="#67ba06"/>
<path d="m87.21563,123.81258v-23.44712-11.69266c0-2.26995 1.30691-1.43152 3.4764-1.43152l28.78199-.0019c2.95479,0 6.19164.38541 8.77939-1.361 3.99028-2.69593 3.516-7.19622 3.516-11.36424 0-6.44279 2.86014-21.4998-3.5189-25.80884-5.57442-3.76522-17.83794-1.36294-24.0518-1.36294-2.83309,0-16.98019,1.73289-16.98019-1.43248 0-9.29713 0-18.5933-.0019-27.88947 0-7.67726-.02222-15.23088-9.99647-15.23088h-13.7414c-3.39333,0-8.04818-.7428-11.286.62786-7.45799,3.15475-4.87508,16.7358-4.87508,23.03467 0,1.65368.26273,20.89029-.24052,20.89029h-25.67071c-6.7886,0-18.64353-1.87392-18.6416,8.3283 0,7.83374.00097,15.66845.00097,23.50219 0,10.2708 13.20145,8.06943 19.85771,8.06943 2.00142,0 24.69415-.25791 24.69415.24148 0,9.69413.00097,19.3873.00097,29.08047 0,3.13736-.63655,7.36623.62593,10.3558 2.2062,5.22088 7.43384,4.87411 12.09931,4.87411 7.11025-.002 27.1766,3.60294 27.17178-7.98153" fill="url(#radialGradient3016)"/>
<path d="m8.48509,52.10633c2.51723,0 1.33686,27.67986.7911,30.52647-.90605,4.72246-3.01758-8.7736-3.06974-9.92113-.0821-1.84204-.87127-20.60824 2.27864-20.60534" fill="#b2ed21"/>
<path d="m128.42727,52.10633c2.51627,0 1.33783,27.67986.79304,30.52647-.90605,4.72246-3.01952-8.7736-3.07168-9.92113-.0821-1.84204-.86837-20.60824 2.27864-20.60534" fill="#b2ed21"/>
<path d="m52.21397,83.10031c2.57132.0029 1.29049,39.84486.77758,43.51832-.34291,2.44285-1.24219,2.1946-1.75897-.0493-1.17941-5.12042-1.22384-10.6166-1.34265-15.84135-.04926-2.12216-.76116-27.63059 2.32404-27.6277" fill="#67ba06"/>
<path d="m89.105,52.3623c0,2.56456 34.65197,1.24509 37.83087.85582 1.50686-.18546 3.4397-.94952.94372-1.71454-4.33609-1.32623-9.28458-1.31367-13.76845-1.4489-2.02074-.06085-25.00614-.81911-25.00614,2.30762" fill="#b2ed21"/>
<path d="m8.48509,52.10633c.0029-2.17432 41.16625-1.73772 41.16819.00097 0,1.85943-41.16239,5.38896-41.16819-.00097" fill="#b2ed21"/>
<path d="m51.72908,8.86428c0,2.51723 27.67986,1.33492 30.5255.79014 4.72053-.90315-8.7736-3.01662-9.92306-3.06878-1.84301-.0821-20.60534-.87224-20.60245,2.27864" fill="#b2ed21"/>
<path d="m51.72908,8.86428c-2.17142,0-1.74255,40.86102-.00097,40.86102 1.89323.00097 5.36964-40.86102.00097-40.86102" fill="#b2ed21"/>
<path d="m83.38762,7.93505c-2.17529,0-1.21901,23.42201-1.20935,25.34133 .01739,3.58266-.42405,7.883.6636,11.36424 .83843,2.6853 2.17722-4.35734 2.22841-4.75434 .41052-3.22236 3.22236-31.95702-1.68266-31.95123" fill="#b2ed21"/>
<path d="m83.38666,84.36472c-1.88164-.0048-1.21322,22.31989-1.21322,24.25852 0,5.5522-.25791,11.20872.31586,16.7416 .31683,3.06685 1.41606,3.346 2.09705.20381 .67809-3.11804 3.45032-41.21455-1.19969-41.20393" fill="#67ba06"/>
<path d="m8.91976,82.40291c-.0029-2.16949 23.42394-1.21901 25.34036-1.20742 3.58459.01739 7.88397-.42405 11.36424.66167 2.68723.83843-4.3583,2.17915-4.7524,2.22938-3.22043.40956-31.96282,3.2156-31.95219-1.68363" fill="#67ba06"/>
<path d="m85.51654,82.40677c-.0019-1.90386 21.46213-1.21805 23.30609-1.21805 5.55123,0 11.20775-.25404 16.7416.31876 3.06492.31683 3.34697,1.4151.20478,2.09801-3.12674.67905-40.25247,3.52953-40.25247-1.19873" fill="#67ba06"/>
<path d="m77.0625,2.34375c-3.65015-.1077-7.44265.3125-10.21875.3125-6.72485,0-17.58967-1.86303-19.4375,7.125-1.17748,5.72607-.1875,12.49047-.1875,18.28125v19.15625c-8.53211-.0077-17.06067-.00097-25.59375,0-7.69368,0-18.96875-1.44588-18.96875,9.6875 0,7.60771-.75826,15.62036 0,23.1875 0,11.51395 15.3519,8.90625 22.75,8.90625 2.61286,0 21.8125-1.04329 21.8125.96875v28.0625c0,8.66348 1.29568,15.53125 11.75,15.53125h14.125c3.77584.002 8.63014.71103 11.9375-1.5 6.4399-4.30711 3.96875-17.40067 3.96875-23.90625v-14.5625c0-3.00503-1.00333-4.59375 2.15625-4.59375h28.875c3.2523,0 6.74907.42318 9.59375-1.5 4.31194-2.91423 3.9375-7.64243 3.9375-12.15625 0-6.92093 2.86365-21.99493-3.9375-26.59375-2.84468-1.92608-6.34531-1.53125-9.59375-1.53125h-15.875-13c-3.15958,0-2.15625-1.58969-2.15625-4.59375v-28.875c-.00097-3.12674-.20113-6.07709-2.59375-8.46875-2.18543-2.18495-5.6936-2.8298-9.34375-2.9375zm-19.0625,2.0625c1.78819-.00592 3.62007.15625 5.125.15625h14.9375c10.28335,0 9.0625,8.87064 9.0625,16.375v27.25c0,3.24941 36.67571-1.72921 41.90625,2.46875 5.50583,4.42205 2.625,19.60017 2.625,25.6875 0,3.87147.19961,8.0292-3.9375,10.0625-2.60223,1.27793-6.39691.71875-9.1875.71875h-28.75c-2.01687,0-2.65625-.62415-2.65625,1.40625v12.8125c0,7.56038.94952,15.77303 0,23.28125 0,10.32199-18.8342,7.03125-25.15625,7.03125-4.20762-.002-9.43186.83512-11.9375-3.5-1.53101-2.65053-.90625-6.70111-.90625-9.625v-30c.00097-6.73547-44.57506,6.99526-44.5625-8.4375v-23.1875c0-10.00227 12.07732-7.78125 18.75-7.78125h25.5625c.49263,0 .25-19.09405.25-20.71875 0-5.73669-2.627-19.89684 3.9375-23.125 1.4093-.69306 3.14931-.86908 4.9375-.875z" fill="#507323" transform="translate(-.84452,-.82494)"/>
</svg>
