<?xml version="1.0" encoding="UTF-8" standalone="no"?>
<svg width="640" xmlns="http://www.w3.org/2000/svg" height="480">
 <g id="Layer_1">
  <g id="surface0" fill="#ff7f00">
   <path stroke-width=".1" stroke-miterlimit="10" d="m149.6 93.889c7.244-0.69 14.895 2.297 19.438 8.057 3.18 3.594 4.586 8.371 5.109 13.054-0.26999 5.485-2.232 11.042-6.152 14.996-5.91 6.48-15.992 8.679-24.101 5.38-11.093-3.801-17.639-17.955-12.13-28.611 3.063-7.164 10.194-11.965 17.836-12.876z" stroke="#000"/>
   <path d="m149.6 93.889c7.244-0.69 14.895 2.297 19.438 8.057 3.18 3.594 4.586 8.371 5.109 13.054-0.26999 5.485-2.232 11.042-6.152 14.996-5.91 6.48-15.992 8.679-24.101 5.38-11.093-3.801-17.639-17.955-12.13-28.611 3.063-7.164 10.194-11.965 17.836-12.876z"/>
   <path stroke-width=".1" stroke-miterlimit="10" d="m119.54 135.5c2.562-2.075 6.062-1.062 8.896-0.158 1.007 3.784 2.577 7.668 1.627 11.643-1.302 7.97-7.004 14.109-12.547 19.553-16.11 14.221-32.212 28.452-48.308 42.689-5.517 4.844-10.509 10.262-16.091 15.027 23.681-0.30299 47.381 0.314 71.047-0.463-0.613-15.262-0.811-30.57-0.167-45.833 0.68-5.048 2.102-13.575 9.1-12.276 6.804 3.522 8.611 11.816 12.06 18.074 4.535 7.604 3.441 16.808 3.526 25.266-0.025009 4.895 0.28799 9.785 0.21799 14.682 2.093 0.088013 4.19 0.119 6.289 0.143 0.188-10.319-2.889-21.614 2.571-31.092 2.317-5.418 4.789-11.084 9.414-14.957 2.212-1.01 5.196-0.668 6.615 1.48 3.182 4.17 3.299 9.693 3.78 14.702 0.53799 9.853 1.161 19.704 1.325 29.573 23.441 0.09201 46.893 0.19501 70.326-0.14299-21.011-20.238-43.292-39.107-64.877-58.723-5.59-5.557-10.623-12.503-10.953-20.668 0.087006-2.97 0.688-6.024 2.09-8.666 1.926-1.125 4.285-0.87799 6.431-1.08 7.48 3.73 13.049 10.18 18.409 16.414 6.043 7.629 11.609 15.618 17.515 23.354 6.664 8.655 13.946 16.817 20.508 25.556 5.884 7.896 11.798 15.768 17.655 23.685 1.27 0.046005 2.541 0.089005 3.818 0.12801 0.03302-11.848-0.062988-23.695 0.050018-35.543 6.958-0.13701 13.92 0.050995 20.88-0.10901 0.664 2.715 0.40903 5.523 0.436 8.291-0.018005 24.254 0.019012 48.51-0.018005 72.765-7.111 0.067017-14.223 0.065002-21.331 0.001007-0.037994-13.146-0.000977-26.29-0.019989-39.435-26.972 0.252-53.947 0.267-80.925 0.25699 0.05101 10.154-0.14499 20.455-2.704 30.341-0.806 3.534-3.337 7.037-7.068 7.767-3.531 0.271-7.388-1.658-8.587-5.143-4.57-10.254-4.824-21.746-5.268-32.779-2.014-0.003998-4.027-0.007996-6.038-0.013-0.026001 9.038-0.30299 18.175-2.377 27.012-1.183 3.968-2.524 8.699-6.828 10.3-4.032 2.058-8.283-1.232-10.322-4.588-3.904-10.443-4.366-21.717-5.377-32.707-28.695 0.68201-57.426 0.22101-86.138 0.354-0.014 12.545 0.018997 25.09-0.017002 37.635-7.11 0.065979-14.221 0.065002-21.331 0-0.073-26.859 0.07-53.72-0.072001-80.578 6.818-0.879 13.76-0.27 20.626-0.364 0.185 0.19299 0.554 0.579 0.738 0.772 0.132 12.242 0.011997 24.491 0.050999 36.736 2.594 0.003998 5.189 0.012009 7.782-0.084991 5.999-7.736 11.875-15.567 17.701-23.433 9.494-12.201 19.743-23.803 28.896-36.27 7.92-10.545 15.532-22.056 26.984-29.094z" stroke="#000"/>
   <path d="m119.54 135.5c2.562-2.075 6.062-1.062 8.896-0.158 1.007 3.784 2.577 7.668 1.627 11.643-1.302 7.97-7.004 14.109-12.547 19.553-16.11 14.221-32.212 28.452-48.308 42.689-5.517 4.844-10.509 10.262-16.091 15.027 23.681-0.30299 47.381 0.314 71.047-0.463-0.613-15.262-0.811-30.57-0.167-45.833 0.68-5.048 2.102-13.575 9.1-12.276 6.804 3.522 8.611 11.816 12.06 18.074 4.535 7.604 3.441 16.808 3.526 25.266-0.025009 4.895 0.28799 9.785 0.21799 14.682 2.093 0.088013 4.19 0.119 6.289 0.143 0.188-10.319-2.889-21.614 2.571-31.092 2.317-5.418 4.789-11.084 9.414-14.957 2.212-1.01 5.196-0.668 6.615 1.48 3.182 4.17 3.299 9.693 3.78 14.702 0.53799 9.853 1.161 19.704 1.325 29.573 23.441 0.09201 46.893 0.19501 70.326-0.14299-21.011-20.238-43.292-39.107-64.877-58.723-5.59-5.557-10.623-12.503-10.953-20.668 0.087006-2.97 0.688-6.024 2.09-8.666 1.926-1.125 4.285-0.87799 6.431-1.08 7.48 3.73 13.049 10.18 18.409 16.414 6.043 7.629 11.609 15.618 17.515 23.354 6.664 8.655 13.946 16.817 20.508 25.556 5.884 7.896 11.798 15.768 17.655 23.685 1.27 0.046005 2.541 0.089005 3.818 0.12801 0.03302-11.848-0.062988-23.695 0.050018-35.543 6.958-0.13701 13.92 0.050995 20.88-0.10901 0.664 2.715 0.40903 5.523 0.436 8.291-0.018005 24.254 0.019012 48.51-0.018005 72.765-7.111 0.067017-14.223 0.065002-21.331 0.001007-0.037994-13.146-0.000977-26.29-0.019989-39.435-26.972 0.252-53.947 0.267-80.925 0.25699 0.05101 10.154-0.14499 20.455-2.704 30.341-0.806 3.534-3.337 7.037-7.068 7.767-3.531 0.271-7.388-1.658-8.587-5.143-4.57-10.254-4.824-21.746-5.268-32.779-2.014-0.003998-4.027-0.007996-6.038-0.013-0.026001 9.038-0.30299 18.175-2.377 27.012-1.183 3.968-2.524 8.699-6.828 10.3-4.032 2.058-8.283-1.232-10.322-4.588-3.904-10.443-4.366-21.717-5.377-32.707-28.695 0.68201-57.426 0.22101-86.138 0.354-0.014 12.545 0.018997 25.09-0.017002 37.635-7.11 0.065979-14.221 0.065002-21.331 0-0.073-26.859 0.07-53.72-0.072001-80.578 6.818-0.879 13.76-0.27 20.626-0.364 0.185 0.19299 0.554 0.579 0.738 0.772 0.132 12.242 0.011997 24.491 0.050999 36.736 2.594 0.003998 5.189 0.012009 7.782-0.084991 5.999-7.736 11.875-15.567 17.701-23.433 9.494-12.201 19.743-23.803 28.896-36.27 7.92-10.545 15.532-22.056 26.984-29.094z"/>
  </g>
 </g>
</svg>
